#!OML:ASF E:\motion texture\Top Level 1\Subject 1\Session 1\male.ASF
:FULLY-SPECIFIED
:DEGREES
211
root -3.35666 16.0356 5.34115 57.6874 -79.8883 -52.3452
lowerback 12.0705 0.519607 1.31879
upperback 4.66439 0.619647 -1.24964
thorax -1.85743 0.251933 -2.12208
lowerneck -15.6919 -0.698341 -8.5358
upperneck 3.97178 0.22027 5.77584
head 3.68562 0.263357 3.17663
rclavicle 3.1408e-014 2.06736e-014
rhumerus -34.4108 12.3493 -98.085
rradius 70.9633
rwrist 6.55227
rhand -31.6683 -33.0275
rfingers 7.12502
rthumb -4.92845 -62.9502
lclavicle 3.1408e-014 2.06736e-014
lhumerus 10.8922 22.5543 45.5051
lradius 41.0339
lwrist -6.98208
lhand -20.1772 19.9898
lfingers 7.12502
lthumb 6.16874 49.88
rfemur -11.6298 -11.5295 29.4347
rtibia 52.9668
rfoot -34.4089 -37.7256
rtoes 0.735882
lfemur -45.2688 4.77963 10.1572
ltibia 30.7111
lfoot -6.76817 -1.26287
ltoes -31.7691
212
root -3.56012 15.9835 5.32554 55.859 -79.2042 -50.5584
lowerback 12.1612 0.616044 1.23795
upperback 4.6655 0.721188 -1.71504
thorax -1.89495 0.303375 -2.57625
lowerneck -15.6139 -0.964566 -9.12619
upperneck 3.94126 -0.0774215 6.42256
head 3.68812 0.141286 3.45261
rclavicle 7.95139e-016 -2.54444e-014
rhumerus -34.7496 14.7465 -99.7593
rradius 71.404
rwrist 6.99247
rhand -31.6371 -32.6291
rfingers 7.12502
rthumb -4.8983 -62.5525
lclavicle 7.95139e-016 -2.54444e-014
lhumerus 12.8815 23.0189 45.207
lradius 40.2812
lwrist -8.17407
lhand -20.1925 20.2421
lfingers 7.12502
lthumb 6.15394 50.1327
rfemur -11.0056 -11.964 29.9898
rtibia 53.4299
rfoot -34.5085 -38.2737
rtoes 0.337527
lfemur -46.118 4.628 10.3941
ltibia 32.6117
lfoot -6.36695 -3.02498
ltoes -31.866
213
root -3.76121 15.9298 5.31594 53.8531 -78.4787 -48.6202
lowerback 12.3352 0.685791 1.20621
upperback 4.68265 0.790618 -2.1652
thorax -1.96049 0.337849 -3.04068
lowerneck -15.5 -1.23292 -9.68765
upperneck 3.85844 -0.380711 6.99459
head 3.67294 0.0121488 3.70015
rclavicle 3.18055e-015 1.59028e-014
rhumerus -35.0439 17.0209 -101.23
rradius 71.8498
rwrist 7.64405
rhand -31.6661 -31.9522
rfingers 7.12502
rthumb -4.92632 -61.875
lclavicle 3.18055e-015 1.59028e-014
lhumerus 14.7966 23.5159 45.1597
lradius 39.7535
lwrist -9.34344
lhand -20.1862 20.3964
lfingers 7.12502
lthumb 6.16005 50.2868
rfemur -10.5098 -12.4329 30.4951
rtibia 54.172
rfoot -34.348 -38.767
rtoes -0.123589
lfemur -47.1248 4.33145 10.6066
ltibia 34.8817
lfoot -6.19976 -4.66289
ltoes -31.591
214
root -3.96019 15.8746 5.31058 51.8344 -77.7611 -46.676
lowerback 12.5547 0.7534 1.15898
upperback 4.72079 0.852897 -2.59564
thorax -2.02855 0.36763 -3.4772
lowerneck -15.3633 -1.50329 -10.2224
upperneck 3.72304 -0.687503 7.48795
head 3.6414 -0.123129 3.91842
rclavicle -1.82882e-014 -5.24792e-014
rhumerus -35.2912 19.1273 -102.472
rradius 72.3102
rwrist 8.50638
rhand -31.8185 -31.0476
rfingers 7.12502
rthumb -5.07352 -60.9668
lclavicle -1.82882e-014 -5.24792e-014
lhumerus 16.6272 24.0489 45.3881
lradius 39.4784
lwrist -10.4337
lhand -20.1835 20.4884
lfingers 7.12502
lthumb 6.1627 50.3788
rfemur -10.1948 -12.8649 30.9377
rtibia 55.2426
rfoot -33.8729 -39.2037
rtoes -0.720149
lfemur -48.2158 3.94948 10.7743
ltibia 37.2966
lfoot -6.18456 -6.03055
ltoes -31.0754
215
root -4.15775 15.8185 5.30773 49.6997 -77.0734 -44.6271
lowerback 12.8155 0.824992 1.04465
upperback 4.78735 0.909472 -3.00651
thorax -2.09016 0.393179 -3.85674
lowerneck -15.2157 -1.7717 -10.7177
upperneck 3.54085 -0.993154 7.8929
head 3.59603 -0.262308 4.10257
rclavicle -9.54166e-015 -1.11319e-014
rhumerus -35.4878 21.0269 -103.478
rradius 72.7845
rwrist 9.52658
rhand -32.0743 -30.0657
rfingers 7.12502
rthumb -5.32049 -59.9789
lclavicle -9.54166e-015 -1.11319e-014
lhumerus 18.3536 24.599 45.8927
lradius 39.481
lwrist -11.3944
lhand -20.2087 20.5641
lfingers 7.12502
lthumb 6.13836 50.4552
rfemur -10.0541 -13.2585 31.2881
rtibia 56.6309
rfoot -33.06 -39.5627
rtoes -1.4257
lfemur -49.3015 3.4913 10.8607
ltibia 39.6266
lfoot -6.24912 -7.0679
ltoes -30.5497
216
root -4.35369 15.7614 5.30628 47.5939 -76.4835 -42.5987
lowerback 13.0893 0.927758 0.807389
upperback 4.87723 0.988746 -3.40189
thorax -2.13442 0.428378 -4.1551
lowerneck -15.0574 -2.03356 -11.1734
upperneck 3.3112 -1.29137 8.20831
head 3.53538 -0.402128 4.25261
rclavicle -1.59028e-014 4.77083e-015
rhumerus -35.6208 22.7053 -104.25
rradius 73.2595
rwrist 10.5903
rhand -32.4539 -29.1308
rfingers 7.12502
rthumb -5.68701 -59.0345
lclavicle -1.59028e-014 4.77083e-015
lhumerus 19.9458 25.1392 46.6542
lradius 39.7809
lwrist -12.2069
lhand -20.2453 20.6461
lfingers 7.12502
lthumb 6.10296 50.5382
rfemur -10.1099 -13.5624 31.5176
rtibia 58.3213
rfoot -31.9036 -39.7967
rtoes -2.11326
lfemur -50.2969 3.0352 10.8484
ltibia 41.7215
lfoot -6.28248 -7.82272
ltoes -30.0613
217
root -4.54792 15.7036 5.30508 45.4337 -76.0014 -40.5101
lowerback 13.374 1.06318 0.423876
upperback 4.99393 1.08877 -3.77914
thorax -2.15754 0.471941 -4.35563
lowerneck -14.8935 -2.28618 -11.5921
upperneck 3.03874 -1.5777 8.43217
head 3.46049 -0.540197 4.36864
rclavicle -2.06736e-014 1.27222e-014
rhumerus -35.6711 24.1631 -104.792
rradius 73.7037
rwrist 11.5984
rhand -33.018 -28.4082
rfingers 7.12502
rthumb -6.23157 -58.2965
lclavicle -2.06736e-014 1.27222e-014
lhumerus 21.3853 25.6556 47.6582
lradius 40.3773
lwrist -12.8909
lhand -20.2811 20.7388
lfingers 7.12502
lthumb 6.06848 50.6319
rfemur -10.3352 -13.7899 31.6091
rtibia 60.2513
rfoot -30.4443 -39.8558
rtoes -2.65966
lfemur -51.1572 2.60462 10.7232
ltibia 43.568
lfoot -6.21829 -8.44555
ltoes -29.4294
218
root -4.73972 15.6447 5.30365 43.254 -75.6556 -38.3738
lowerback 13.6532 1.23806 -0.114155
upperback 5.12035 1.21661 -4.14371
thorax -2.16873 0.527055 -4.46016
lowerneck -14.7254 -2.52433 -11.9727
upperneck 2.74413 -1.84622 8.56675
head 3.37652 -0.673229 4.45174
rclavicle -3.18055e-015 -3.49861e-014
rhumerus -35.6297 25.404 -105.131
rradius 74.0532
rwrist 12.4762
rhand -33.6798 -28.0218
rfingers 7.12502
rthumb -6.87045 -57.8903
lclavicle -3.18055e-015 -3.49861e-014
lhumerus 22.6348 26.1267 48.8639
lradius 41.2626
lwrist -13.4966
lhand -20.2685 20.7843
lfingers 7.12502
lthumb 6.08062 50.677
rfemur -10.7324 -13.9298 31.5491
rtibia 62.3612
rfoot -28.7395 -39.6937
rtoes -3.0311
lfemur -51.8853 2.28177 10.4518
ltibia 45.2425
lfoot -6.16566 -9.04451
ltoes -28.5872
219
root -4.92982 15.5863 5.30293 40.7872 -75.3609 -35.967
lowerback 13.9728 1.41441 -0.75277
upperback 5.26846 1.32712 -4.48926
thorax -2.18316 0.571212 -4.48723
lowerneck -14.5538 -2.74654 -12.3145
upperneck 2.44624 -2.09641 8.61881
head 3.28869 -0.800426 4.50409
rclavicle 1.03368e-014 -1.59028e-014
rhumerus -35.4781 26.415 -105.277
rradius 74.2567
rwrist 13.1152
rhand -34.3146 -27.9266
rfingers 7.12502
rthumb -7.48319 -57.7742
lclavicle 1.03368e-014 -1.59028e-014
lhumerus 23.6534 26.4869 50.209
lradius 42.4281
lwrist -13.9576
lhand -20.3326 20.9208
lfingers 7.12502
lthumb 6.01875 50.8153
rfemur -11.1939 -14.0953 31.3263
rtibia 64.5346
rfoot -26.8094 -39.3023
rtoes -3.09273
lfemur -52.4803 2.00038 10.0155
ltibia 46.828
lfoot -6.24822 -9.7022
ltoes -27.4517
220
root -5.11707 15.5274 5.3021 38.2769 -75.0968 -33.4948
lowerback 14.2942 1.59215 -1.4401
upperback 5.41805 1.42877 -4.8047
thorax -2.19976 0.609481 -4.45514
lowerneck -14.3939 -2.95389 -12.6202
upperneck 2.16977 -2.32942 8.60227
head 3.20667 -0.921421 4.53048
rclavicle 7.95139e-016 -1.59028e-014
rhumerus -35.2077 27.1917 -105.244
rradius 74.2506
rwrist 13.5469
rhand -34.9404 -28.1517
rfingers 7.12502
rthumb -8.08729 -57.977
lclavicle 7.95139e-016 -1.59028e-014
lhumerus 24.4155 26.731 51.6544
lradius 43.8468
lwrist -14.3182
lhand -20.4846 21.1291
lfingers 7.12502
lthumb 5.87194 51.0277
rfemur -11.7638 -14.2632 31.0114
rtibia 66.7492
rfoot -24.6939 -38.6747
rtoes -2.79493
lfemur -53.0011 1.85158 9.45926
ltibia 48.3983
lfoot -6.52726 -10.4406
ltoes -26.011
221
root -5.30109 15.4686 5.30132 35.7208 -74.7649 -30.9641
lowerback 14.639 1.73794 -2.08817
upperback 5.56611 1.48992 -5.07989
thorax -2.2333 0.6274 -4.39883
lowerneck -14.256 -3.15249 -12.8815
upperneck 1.93426 -2.55543 8.53608
head 3.1389 -1.0402 4.53477
rclavicle -2.62396e-014 3.18055e-015
rhumerus -34.8147 27.6926 -105.038
rradius 74.0001
rwrist 13.771
rhand -35.4649 -28.5562
rfingers 7.12502
rthumb -8.59343 -58.3613
lclavicle -2.62396e-014 3.18055e-015
lhumerus 24.9087 26.8398 53.1635
lradius 45.4845
lwrist -14.5979
lhand -20.7635 21.4264
lfingers 7.12502
lthumb 5.60272 51.3323
rfemur -12.4074 -14.5095 30.6609
rtibia 68.945
rfoot -22.4011 -37.8147
rtoes -2.06181
lfemur -53.501 1.77439 8.83965
ltibia 49.9664
lfoot -6.97193 -11.2415
ltoes -24.392
